<?xml version="1.0" encoding="utf-8"?>
<!-- Generator: Adobe Illustrator 27.2.0, SVG Export Plug-In . SVG Version: 6.00 Build 0)  -->
<svg version="1.1" id="Camada_1" xmlns="http://www.w3.org/2000/svg" xmlns:xlink="http://www.w3.org/1999/xlink" x="0px" y="0px"
	 viewBox="0 0 48 48" style="enable-background:new 0 0 48 48;" xml:space="preserve">
<style type="text/css">
	.st0{fill:#FFFFFF;}
</style>
<path class="st0" d="M2.5,39.2v-6.1h2.2v6.1h6.1v2.2H4.8C3.5,41.5,2.5,40.5,2.5,39.2z M37.1,41.5v-2.2h6.1v-6.1h2.2v6
	c0,1.3-1,2.3-2.3,2.3H37.1z M7.8,36.3V11.6h4v24.7H7.8z M13.8,36.3V11.6h2.1v24.7H13.8z M19.9,36.3V11.6H24v24.7H19.9z M26,36.3
	V11.6h6v24.7H26z M34.2,36.3V11.6h2v24.7H34.2z M38.2,36.3V11.6h2v24.7H38.2z M2.5,14.9V8.7c0-1.2,1-2.2,2.2-2.2h6.1v2.2H4.8v6.1
	H2.5z M43.2,14.9V8.8h-6.1V6.5h6.1c1.2,0,2.2,1,2.2,2.2v6.1H43.2z"/>
</svg>
