<?xml version="1.0" encoding="utf-8"?>
<!-- Generator: Adobe Illustrator 27.2.0, SVG Export Plug-In . SVG Version: 6.00 Build 0)  -->
<svg version="1.1" id="Camada_1" xmlns="http://www.w3.org/2000/svg" xmlns:xlink="http://www.w3.org/1999/xlink" x="0px" y="0px"
	 viewBox="0 0 48 48" style="enable-background:new 0 0 48 48;" xml:space="preserve">
<style type="text/css">
	.st0{fill:#FFFFFF;}
</style>
<path class="st0" d="M24,44.6L18.4,39H9.9c-0.8,0-1.5-0.3-2.1-0.9c-0.6-0.6-0.8-1.3-0.8-2V7.9c0-0.8,0.3-1.5,0.8-2
	C8.4,5.3,9.1,5,9.9,5h28.2c0.8,0,1.4,0.3,2,0.8S41,7.1,41,7.9v28.2c0,0.8-0.3,1.4-0.9,2c-0.6,0.6-1.3,0.9-2,0.9h-8.5L24,44.6z
	 M9.9,36.8h9.4l4.7,4.7l4.6-4.7h9.4c0.2,0,0.4-0.1,0.5-0.2c0.1-0.1,0.2-0.3,0.2-0.5V7.9c0-0.2-0.1-0.4-0.2-0.5s-0.3-0.2-0.5-0.2H9.9
	c-0.2,0-0.4,0.1-0.5,0.2C9.3,7.5,9.2,7.7,9.2,7.9v28.2c0,0.2,0.1,0.4,0.2,0.5C9.5,36.7,9.7,36.8,9.9,36.8z M9.2,7.2v29.5V7.2z
	 M24,32.5c0.4,0,0.8-0.1,1.1-0.5c0.3-0.3,0.5-0.7,0.5-1.1c0-0.5-0.2-0.9-0.5-1.2s-0.7-0.5-1.1-0.5c-0.4,0-0.8,0.2-1.1,0.5
	c-0.3,0.3-0.5,0.7-0.5,1.2c0,0.4,0.2,0.8,0.5,1.1C23.1,32.4,23.5,32.5,24,32.5z M24.9,25.6c0-0.9,0.2-1.7,0.5-2.3
	c0.3-0.6,0.9-1.3,1.6-2.1c1-1,1.8-1.9,2.2-2.8c0.4-0.8,0.6-1.7,0.6-2.6c0-1.7-0.5-3-1.6-4s-2.5-1.5-4.2-1.5c-1.5,0-2.9,0.4-4,1.1
	c-1.1,0.8-1.9,1.8-2.5,3l2.1,0.9c0.5-0.9,1-1.5,1.7-2c0.7-0.5,1.5-0.7,2.6-0.7c1.2,0,2.2,0.3,2.8,0.9c0.6,0.6,0.9,1.4,0.9,2.4
	c0,0.7-0.2,1.3-0.5,1.9c-0.4,0.6-0.9,1.2-1.7,2c-1.2,1.1-2,2.1-2.3,2.9c-0.3,0.8-0.5,1.8-0.5,2.9H24.9z"/>
</svg>
