<?xml version="1.0" encoding="utf-8"?>
<!-- Generator: Adobe Illustrator 27.2.0, SVG Export Plug-In . SVG Version: 6.00 Build 0)  -->
<svg version="1.1" id="Camada_1" xmlns="http://www.w3.org/2000/svg" xmlns:xlink="http://www.w3.org/1999/xlink" x="0px" y="0px"
	 viewBox="0 0 48 48" style="enable-background:new 0 0 48 48;" xml:space="preserve">
<style type="text/css">
	.st0{fill:#FFFFFF;}
</style>
<path class="st0" d="M5.4,32.5V6.8C5.4,6.4,5.6,6,6,5.6C6.3,5.2,6.7,5,7.2,5H32c0.4,0,0.8,0.2,1.2,0.6c0.4,0.4,0.6,0.8,0.6,1.3v16.8
	c0,0.4-0.2,0.8-0.6,1.2c-0.4,0.4-0.8,0.6-1.2,0.6H12.4L5.4,32.5z M14.2,34.2c-0.4,0-0.8-0.2-1.2-0.6s-0.6-0.8-0.6-1.2v-3.6h24
	l0.6,0.6V12h3.8c0.4,0,0.8,0.2,1.2,0.6c0.4,0.4,0.5,0.8,0.5,1.3v27.4l-7-7H14.2z M31.6,7.2h-24V27l3.8-3.9h20.1V7.2z M7.6,7.2V27
	V7.2z"/>
</svg>
