<?xml version="1.0" encoding="UTF-8"?>
<svg id="Camada_1" data-name="Camada 1" xmlns="http://www.w3.org/2000/svg" viewBox="0 0 388.44 155.56">
  <defs>
    <style>
      .cls-1 {
        fill: #fff;
      }
    </style>
  </defs>
  <g>
    <path class="cls-1" d="m196.68,39.82c-8.91,0-16.94,3.77-22.59,9.8-5.66-6.03-13.7-9.8-22.64-9.8-17.13,0-31,13.92-31,31.06v37.99h16.85v-38.17c.09-7.75,6.4-14.02,14.15-14.02s14.21,6.36,14.21,14.21v37.99h16.88v-38.17c.09-7.75,6.4-14.02,14.15-14.02s14.21,6.36,14.21,14.21v37.99h16.85v-37.99c0-17.14-13.88-31.06-31.06-31.06"/>
    <path class="cls-1" d="m41.45,97.13c-.85.14-1.71.23-2.53.23-3.69,0-6.08-.99-7.17-2.94-1.07-1.93-1.61-4.41-1.61-7.38V19.06c0-8.52-16.41-2.67-16.41,3.05v65.05c0,3.24.31,6.3.89,9.1.59,2.83,1.71,5.36,3.34,7.52,1.62,2.21,3.83,3.92,6.63,5.18,2.79,1.22,6.4,1.85,10.85,1.85,1.85,0,8.97-.25,11.04-.56.02,0,.05-.02.07-.03.86-.31,1.83-.53,2.92-.59-1.54-1.63-3.29-3.76-4.94-6.43-1.36-2.2-2.36-4.28-3.1-6.09Z"/>
    <path class="cls-1" d="m376.46,42.21c-20.41-.43-39.79,6.68-39.79,30.97v35.69h16.86v-35.69c0-14.66,12.52-14.91,22.94-14.97v-16Z"/>
    <g>
      <path class="cls-1" d="m233.83,25.5c0-2.89.98-5.41,2.97-7.53,2.04-2.12,4.55-3.2,7.62-3.2s5.63.99,7.71,3.06c2.12,2.03,3.16,4.55,3.16,7.67s-1.03,5.63-3.16,7.66c-2.08,2.03-4.64,3.07-7.71,3.07s-5.58-1.08-7.62-3.2c-1.98-2.16-2.97-4.64-2.97-7.52"/>
      <path class="cls-1" d="m236.17,45.14c0-4.94,12.95.67,16.72-3.11v66.83h-16.72v-63.72Z"/>
    </g>
    <path class="cls-1" d="m318.28,51.71c-6.54-5.95-14.51-8.99-23.53-8.99s-17.23,3.19-23.8,9.76c-6.42,6.58-9.64,14.35-9.64,23.52s3.22,17.11,9.64,23.68c2.75,2.75,5.77,4.91,9.08,6.47,1.33.63,6.95,3.2,14.72,3.14,7.71-.06,13.54-2.67,16.53-4.28.76,1.18,1.53,2.36,2.29,3.85h14.66v-32.39c0-10.54-3.38-18.78-9.95-24.76Zm-11.68,36.28h0c-3.03,3.06-7.2,4.95-11.82,4.95s-8.79-1.89-11.82-4.95h0c-3.03-3.06-4.9-7.29-4.9-11.97s1.87-8.92,4.9-11.98h0c3.03-3.06,7.2-4.95,11.82-4.95s8.79,1.89,11.82,4.95h0c3.03,3.06,4.9,7.29,4.9,11.98s-1.87,8.92-4.9,11.97Z"/>
    <path class="cls-1" d="m112.03,42.72h-16.86v37.63h.05c0,7.85-6.4,14.21-14.2,14.21s-14.23-6.36-14.23-14.21h.04v-37.63h-16.86v37.63c0,17.14,13.89,31.05,31.06,31.05s31.01-13.92,31.01-31.05v-37.63Z"/>
  </g>
  <g>
    <path class="cls-1" d="m321.88,128.89c-.22,0-.34.11-.34.34v2.15c0,.21.11.32.34.32h3.44v10.31c0,.23.11.34.32.34h2.37c.21,0,.32-.11.32-.34v-10.31h3.44c.21,0,.32-.11.32-.32v-2.15c0-.22-.11-.34-.32-.34h-9.9Z"/>
    <path class="cls-1" d="m288.13,136.86h4.67c.22,0,.34-.11.34-.32v-2.03c0-.21-.11-.32-.34-.32h-4.67v-2.58h5.29c.23,0,.34-.11.34-.32v-2.07c0-.22-.11-.34-.34-.34h-7.98c-.23,0-.34.11-.34.34v12.78c0,.23.11.34.34.34h8.28c.21,0,.34-.11.34-.34v-2.07c0-.21-.13-.32-.34-.32h-5.59v-2.75Z"/>
    <path class="cls-1" d="m249.22,142.34c.21,0,.32-.11.32-.34v-2.95c0-1.66-.13-3.65-.3-5.36l.06-.02c.45,1.07,1.36,2.99,2.18,4.38l2.45,4.06c.09.15.22.23.39.23h2.5c.21,0,.32-.11.32-.34v-12.78c0-.22-.11-.34-.32-.34h-2.33c-.22,0-.34.11-.34.34v3.37c0,1.56.08,3.33.21,5.02l-.06.02c-.41-.94-1.22-2.52-2.01-4.03l-2.52-4.5c-.08-.15-.21-.23-.38-.23h-2.5c-.22,0-.34.11-.34.34v12.78c0,.23.11.34.34.34h2.33Z"/>
    <path class="cls-1" d="m219.14,141.95l-3.01-4.55c1.73-.64,2.71-2.01,2.71-3.97,0-2.78-1.81-4.54-5.01-4.54h-4.57c-.22,0-.34.11-.34.34v12.78c0,.23.11.34.34.34h2.35c.23,0,.34-.11.34-.34v-4.16h1.2l2.62,4.27c.08.15.21.23.38.23h2.77c.26,0,.36-.17.23-.4Zm-5.4-6.74h-1.79v-3.54h1.79c1.39,0,1.99.57,1.99,1.77s-.6,1.77-1.99,1.77Z"/>
    <path class="cls-1" d="m174.84,136.86h4.67c.22,0,.34-.11.34-.32v-2.03c0-.21-.11-.32-.34-.32h-4.67v-2.58h5.29c.23,0,.34-.11.34-.32v-2.07c0-.22-.11-.34-.34-.34h-7.98c-.22,0-.34.11-.34.34v12.78c0,.23.11.34.34.34h8.28c.21,0,.34-.11.34-.34v-2.07c0-.21-.13-.32-.34-.32h-5.59v-2.75Z"/>
    <path class="cls-1" d="m133.51,128.89c-.23,0-.34.11-.34.34v2.15c0,.21.11.32.34.32h3.44v10.31c0,.23.11.34.32.34h2.37c.21,0,.32-.11.32-.34v-10.31h3.44c.21,0,.32-.11.32-.32v-2.15c0-.22-.11-.34-.32-.34h-9.9Z"/>
    <path class="cls-1" d="m97.5,142.34c.21,0,.32-.11.32-.34v-2.95c0-1.66-.13-3.65-.3-5.36l.06-.02c.45,1.07,1.36,2.99,2.18,4.38l2.45,4.06c.09.15.23.23.4.23h2.5c.21,0,.32-.11.32-.34v-12.78c0-.22-.11-.34-.32-.34h-2.33c-.22,0-.34.11-.34.34v3.37c0,1.56.08,3.33.21,5.02l-.06.02c-.41-.94-1.22-2.52-2.01-4.03l-2.52-4.5c-.08-.15-.21-.23-.38-.23h-2.5c-.22,0-.34.11-.34.34v12.78c0,.23.11.34.34.34h2.33Z"/>
    <rect class="cls-1" x="63.77" y="128.89" width="3.03" height="13.45" rx=".34" ry=".34"/>
  </g>
</svg>