<?xml version="1.0" encoding="UTF-8"?>
<svg id="Camada_1" data-name="Camada 1" xmlns="http://www.w3.org/2000/svg" viewBox="0 0 637.93 237.65">
  <defs>
    <style>
      .cls-1 {
        fill: #fff;
      }
    </style>
  </defs>
  <path class="cls-1" d="m526.1,111.75c1.04-18.19,9.29-37.73,30.62-49.2,32.13-17.28,80.01,1.49,81.21,46.52.29,10.88-5.66,16.65-16.64,16.7-20.35.1-40.7.05-61.05.07-5.77,0-6.59,1.05-4.88,6.66,3.31,10.89,11.65,15.9,22.03,17.84,13.95,2.61,26.4-1.16,37.47-9.94,7.05-5.6,15.5-2.72,18.05,5.97,1.27,4.31.13,8.18-3.04,10.94-9.57,8.36-19.85,15.53-32.72,18.02-37.5,7.27-71.07-20.34-71.05-63.58Zm56.59-5.48v-.02c6.86,0,13.72,0,20.57,0,2.67,0,5.48-.1,6.94-2.72,1.55-2.77.07-5.31-1.39-7.68-11.85-19.27-39.86-20-52.71-1.4-1.71,2.47-2.99,5.08-1.53,8,1.5,3.01,4.33,3.87,7.55,3.85,6.86-.05,13.72-.01,20.57-.01Z"/>
  <path class="cls-1" d="m400.94,116.22c0-14.73-.02-29.46.01-44.19.02-6.89,3.63-11.73,9.81-13.31,5.84-1.49,11.24,1.1,14.35,7.34,1.13,2.27,1.99,1.74,3.62.78,24.27-14.28,52.3-10.56,71.92,9.69,10.06,10.38,15.45,23,15.8,37.41.38,15.59.14,31.2.08,46.81-.03,7.02-4.58,12.31-10.97,13.06-6.6.77-13.68-3.8-15.43-9.94-.59-2.07-.67-4.18-.66-6.31.01-13.98.05-27.96-.01-41.94-.08-18.48-12.94-31.74-30.67-31.74-18.11,0-32.13,13.79-32.25,31.9-.1,14.6.03,29.21-.05,43.81-.04,8-5.07,13.9-11.9,14.28-7.79.43-13.55-5.01-13.6-13.08-.08-14.85-.02-29.71-.03-44.56Z"/>
  <path class="cls-1" d="m384.51,116.05c0,13.74.02,27.48-.02,41.22,0,2.11-.14,4.26-.55,6.32-1.07,5.34-5.32,9.47-10.22,10.19-5.5.81-10.56-1.48-13.18-6.53-1.32-2.53-2.26-2.78-4.74-1.36-35.63,20.5-79.29,0-86.39-40.53-.62-3.55-.92-7.2-.95-10.8-.11-13.36-.07-26.73-.02-40.09,0-1.98.15-4.01.57-5.94,1.38-6.39,7.25-10.77,13.36-10.14,6.62.68,11.51,5.81,11.56,12.57.11,14.99-.03,29.98.07,44.96.09,14.01,8.61,26.17,21.26,30.64,21.4,7.56,43.34-7.56,43.66-30.25.21-15.11-.02-30.23.09-45.34.05-6.77,4.91-11.89,11.54-12.57,6.11-.63,12,3.75,13.37,10.13.44,2.05.56,4.21.57,6.32.05,13.74.02,27.48.03,41.22Z"/>
  <path class="cls-1" d="m507.63,210.98c0,2.6-.05,5.2.01,7.79.05,2.15-.45,3.62-3.03,3.67-2.79.06-3.29-1.5-3.27-3.82.06-5.73,0-11.47.04-17.2,0-1.33-.26-2.92,1.48-3.46,1.66-.51,3.19-.22,4.41,1.19,3.01,3.46,6.04,6.9,9.97,10.24,0-2.65.03-5.3,0-7.95-.03-2.39.83-3.71,3.48-3.74,2.8-.02,3.3,1.53,3.28,3.83-.05,5.61,0,11.22-.03,16.83-.01,1.45.26,3.17-1.61,3.79-1.98.65-3.59.03-4.97-1.59-2.87-3.39-5.85-6.7-8.79-10.04-.32.15-.64.31-.95.46Z"/>
  <path class="cls-1" d="m333.51,209.5c0-2.75.03-5.43-.01-8.11-.04-2.13.43-3.63,3.04-3.66,2.82-.04,3.26,1.56,3.24,3.85-.06,5.74,0,11.48-.03,17.22,0,1.33.24,2.9-1.54,3.41-1.71.5-3.22,0-4.4-1.33-2.64-2.99-5.26-6-7.88-9.01-.4-.45-.72-1.02-2.02-.98,0,2.78-.04,5.58.01,8.39.04,2.2-.94,3.18-3.15,3.17-2.2-.01-3.15-1-3.13-3.2.04-5.99,0-11.98.02-17.97,0-1.21-.21-2.66,1.29-3.22,1.66-.62,3.23-.29,4.43,1.07,2.4,2.71,4.74,5.47,7.12,8.18.71.8,1.11,1.98,3,2.19Z"/>
  <path class="cls-1" d="m454.86,210.15c0-2.99.06-5.99-.02-8.98-.07-2.32.82-3.54,3.25-3.44,3.84.14,7.75-.52,11.51.75,5.51,1.87,7.89,8.15,4.34,12.68-1.93,2.47-1.69,4.07.08,6.08.16.19.33.39.41.62.52,1.37,2.97,2.84,1.22,4.03-1.86,1.27-4.65,1.22-6.49-.83-1.15-1.28-1.97-2.87-2.92-4.33-.86-1.33-2.1-1.7-3.57-1.4-1.7.35-1.56,1.76-1.54,2.97.04,2.33-.17,4.24-3.3,4.16-3.27-.08-2.98-2.31-2.99-4.45,0-2.62,0-5.24,0-7.86Zm10.31-6.37c-1.92.03-3.98-.29-4.03,2.59-.03,1.82.23,3.32,2.54,3.2,2.25-.12,4.91-.04,5.15-3.05.18-2.26-1.87-2.61-3.65-2.74Z"/>
  <path class="cls-1" d="m410.74,210.18c0-2.99.05-5.99-.02-8.98-.05-2.27.77-3.53,3.24-3.49,4.24.06,8.48.02,12.72.03,1.79,0,2.79.79,2.82,2.69.03,1.93-.71,3.14-2.76,3.21-1.87.06-3.74,0-5.61.1-1.42.07-3.38-.28-3.33,1.95.05,1.99,1.87,1.6,3.17,1.67,1.49.08,2.99.05,4.49.07,1.69.02,2.47.92,2.51,2.58.04,1.82-.74,2.82-2.64,2.83-1.75,0-3.49.03-5.24.07-1.19.03-2.37.26-2.33,1.78.04,1.51,1.26,1.69,2.42,1.72,2.12.06,4.24.07,6.36.07,1.98,0,2.99.86,2.96,2.94-.03,2.04-1.06,2.98-3,2.99-4.24.03-8.48,0-12.72.03-2.24.01-3.09-1.15-3.05-3.28.05-2.99.01-5.98,0-8.98Z"/>
  <path class="cls-1" d="m550.06,209.92c0-2.87.08-5.74-.02-8.6-.09-2.51.9-3.68,3.49-3.62,3.86.09,7.73.05,11.59.01,2.15-.02,3.68.55,3.64,3.11-.03,2.38-1.52,2.88-3.48,2.88-1.87,0-3.74-.03-5.61.04-1.32.05-3.05-.2-3.13,1.77-.08,2.06,1.67,1.79,2.99,1.85,1.62.07,3.24.05,4.86.08,1.71.04,2.42,1,2.43,2.64,0,1.61-.6,2.66-2.34,2.71-1.99.06-3.99.06-5.98.12-1.1.04-2,.44-1.99,1.72,0,1.28.91,1.71,2,1.74,2.37.07,4.74.09,7.1.1,1.91,0,3.09.74,3.16,2.82.07,2.25-1.09,3.15-3.21,3.14-4.11-.01-8.23-.02-12.34,0-2.16.01-3.2-.94-3.15-3.17.07-3.12.02-6.23,0-9.35Z"/>
  <path class="cls-1" d="m375.32,197.73c2.49,0,4.98.02,7.47,0,2-.02,3.35.52,3.37,2.92.02,2.27-1.04,3.31-3.16,3.09-3.89-.41-4.59,1.65-4.41,4.94.19,3.6,0,7.22.03,10.83.01,2.04-.99,2.91-2.98,2.93-2.1.02-3.3-.74-3.27-3.03.05-3.61-.17-7.23.04-10.83.2-3.4-.72-5.25-4.51-4.84-1.95.21-3.43-.49-3.51-2.83-.07-1.92.58-3.15,2.71-3.15,2.74,0,5.48,0,8.22,0v-.02Z"/>
  <path class="cls-1" d="m602.83,197.73c2.5,0,4.99.01,7.49,0,2.01-.02,3.41.59,3.45,2.93.03,2.26-1.18,3.3-3.26,3.07-3.94-.44-5.01,1.38-4.74,5.02.26,3.48,0,6.99.06,10.48.03,2.19-.9,3.2-3.11,3.21-2.21.01-3.18-.96-3.15-3.17.05-3.87-.09-7.74.02-11.61.07-2.58-.65-4.08-3.56-3.9-2.11.13-4.02-.05-4-3.04.02-3.02,1.98-3,4.07-3,2.25,0,4.5,0,6.74,0h0Z"/>
  <path class="cls-1" d="m284.83,209.94c0-3.12.01-6.23,0-9.35,0-2.07,1.09-2.85,3.06-2.86,1.98-.01,3.56.45,3.58,2.78.05,6.36.05,12.71.02,19.07,0,2.31-1.52,2.85-3.52,2.86-2.19.02-3.2-.95-3.16-3.16.05-3.12.01-6.23.01-9.35h.01Z"/>
  <g>
    <path class="cls-1" d="m50.8,169.92c-4.21,0-9.42-.5-15.15-2.35-5.06-1.63-22.26-8.41-30.92-27.21C1.66,133.7.07,126.48,0,118.91v-.08s0-.08,0-.08c.07-7.57,1.66-14.79,4.73-21.45,8.67-18.8,25.86-25.58,30.92-27.21,10.3-3.31,18.92-2.3,23.06-1.81,24.4,2.87,41.4,18.66,47.73,25.51l12.38,12.22,12.34-12.18c6.34-6.86,23.37-22.68,47.78-25.55,4.14-.49,12.76-1.5,23.06,1.81,5.06,1.63,22.26,8.41,30.92,27.21,3.07,6.67,4.67,13.89,4.73,21.46v.16c-.07,7.57-1.66,14.79-4.73,21.46-8.67,18.79-25.86,25.58-30.92,27.21-10.3,3.31-18.92,2.3-23.06,1.81-24.52-2.89-41.4-18.51-47.67-25.3l-12.44-12.28-12.35,12.2c-6.29,6.81-23.22,22.5-47.76,25.39-1.84.22-4.56.54-7.91.54Zm81.09-51.02l12.74,12.6c4.76,5.18,17.83,17.46,36.45,19.65,3.29.39,8.79,1.04,15.28-1.05,3.26-1.05,14.35-5.41,19.88-17.42,1.97-4.27,2.99-8.93,3.04-13.85-.05-4.92-1.08-9.58-3.04-13.85-5.53-12-16.62-16.37-19.88-17.42-6.49-2.09-11.99-1.44-15.28-1.05-18.5,2.18-31.73,14.65-36.56,19.9l-.31.32-12.32,12.17Zm-113.53-.07c.05,4.92,1.08,9.58,3.05,13.85,5.53,12.01,16.62,16.37,19.88,17.42,6.49,2.09,12,1.44,15.28,1.05,18.64-2.19,31.76-14.54,36.54-19.74l.31-.32,12.34-12.18-12.68-12.53c-4.82-5.25-18.02-17.69-36.52-19.86-3.29-.39-8.79-1.04-15.28,1.05-3.26,1.05-14.35,5.41-19.88,17.42-1.97,4.27-2.99,8.93-3.05,13.85Z"/>
    <path class="cls-1" d="m118.83,237.65h-.08c-7.57-.07-14.79-1.66-21.46-4.73-18.79-8.66-25.58-25.86-27.21-30.92-3.31-10.29-2.3-18.91-1.81-23.06,2.93-24.91,18.54-41.77,25.26-47.97l12.23-12.07-12.25-12.1c-5.33-4.92-22.21-22.37-25.24-48.09-.49-4.14-1.5-12.76,1.81-23.06,1.63-5.06,8.41-22.26,27.21-30.92C103.96,1.66,111.18.07,118.75,0h.16c7.57.07,14.79,1.66,21.46,4.73,18.79,8.67,25.58,25.86,27.21,30.92,3.31,10.3,2.3,18.91,1.81,23.06-3.03,25.72-19.94,43.2-25.28,48.13l-12.21,12.05,12.32,12.16c6.69,6.18,22.24,22.97,25.17,47.88.49,4.14,1.5,12.76-1.81,23.06-1.63,5.06-8.41,22.26-27.21,30.92-6.67,3.07-13.89,4.67-21.46,4.73h-.08Zm0-105.85l-12.75,12.58c-4.01,3.68-17.28,17.22-19.57,36.71-.39,3.29-1.04,8.79,1.05,15.28,1.05,3.26,5.41,14.34,17.42,19.88,4.27,1.97,8.93,2.99,13.85,3.04,4.92-.05,9.58-1.08,13.85-3.04,12-5.53,16.37-16.62,17.42-19.88,2.09-6.49,1.44-11.99,1.05-15.28-2.3-19.49-15.49-32.96-19.48-36.62l-.24-.23-12.6-12.44Zm0-113.44c-4.92.05-9.58,1.08-13.85,3.04-12,5.53-16.37,16.62-17.42,19.88-2.09,6.49-1.44,11.99-1.05,15.28,2.31,19.65,15.55,33.16,19.55,36.83l.24.23,12.53,12.37,12.73-12.56c4.01-3.68,17.28-17.22,19.59-36.87.39-3.29,1.04-8.79-1.05-15.28-1.05-3.26-5.41-14.34-17.42-19.88-4.27-1.97-8.93-2.99-13.85-3.04Z"/>
    <path class="cls-1" d="m144.21,131.06l-12.32-12.16,12.21-12.05c5.34-4.93,22.25-22.41,25.28-48.13.16-1.39.38-3.28.48-5.56-6.1-.37-12.22-.62-18.34-.8-.07,1.64-.24,3.07-.37,4.22-2.31,19.65-15.58,33.19-19.59,36.87l-12.73,12.56-12.53-12.37-.24-.23c-4-3.67-17.23-17.19-19.55-36.83-.16-1.39-.37-3.18-.4-5.28-6.13-.21-12.25-.49-18.36-.91-.03,3.54.3,6.42.53,8.33,3.03,25.72,19.91,43.17,25.24,48.09l12.25,12.1-12.23,12.07c-6.7,6.18-22.22,22.95-25.23,47.73,6.2-.16,12.43-.44,18.66-.69,3.23-17.84,15.31-30.15,19.11-33.64l12.75-12.58,12.6,12.44.24.23c3.99,3.66,17.19,17.13,19.48,36.62.1.82.21,1.78.29,2.86,6.18,1.44,12.38,2.53,18.47,2.75,0-3.28-.32-5.95-.54-7.75-2.93-24.91-18.48-41.7-25.17-47.88Z"/>
    <polygon class="cls-1" points="105.76 118.9 118.83 106 131.89 118.9 118.83 131.8 105.76 118.9"/>
    <path class="cls-1" d="m195.54,169.15c-7.38,1.3-13.36.61-16.6.22-24.52-2.88-41.39-18.51-47.67-25.3l-12.44-12.28-13.07-12.9-12.68-12.53c-4.82-5.25-18.02-17.69-36.52-19.86-3.12-.37-8.25-.97-14.33.77-.4-6.2-.73-12.41-.97-18.63,7.76-1.51,14.09-.76,17.45-.37,24.41,2.87,41.4,18.65,47.74,25.51l12.38,12.22,13.06,12.9,12.74,12.6c4.75,5.18,17.83,17.46,36.46,19.65,2.75.32,7.05.83,12.17-.24.58,6.09,1.33,12.16,2.29,18.25Z"/>
  </g>
</svg>