<?xml version="1.0" encoding="UTF-8"?>
<svg id="Camada_1" data-name="Camada 1" xmlns="http://www.w3.org/2000/svg" viewBox="0 0 637.77 116.51">
  <defs>
    <style>
      .cls-1 {
        fill: #00323d;
      }

      .cls-2 {
        fill: #063;
      }
    </style>
  </defs>
  <g>
    <path class="cls-2" d="m42.43,44.47c-3.29,2.5-9.16,7.64-13.4,16.16-3.8,7.62-4.62,14.58-4.79,18.6-.78-3.87-.93-7.09-.93-9.32,0-15.52,9.32-27.96,9.32-27.96,1.21-1.62,3.16-4,5.99-6.57.51,1.49,1.1,3.07,1.79,4.71.66,1.57,1.34,3.03,2.02,4.39Z"/>
    <g>
      <path class="cls-2" d="m116.95,49.48c.67,1.53,1.33,3.26,1.93,5.18.53,1.71.94,3.33,1.24,4.82.93.41,2.22,1.03,3.68,1.92,1.64,1,2.86,1.74,3.96,2.94.55.6,2.65,2.88,2.69,5.57.09,5.16-7.44,8.96-10.34,10.42-2.72,1.37-4.95,1.97-5.31,2.09-11.08,3.77-27.09,6.14-44.9,6.14-10.23,0-19.87-.79-28.32-2.17,2.79,4.75,6.17,7.8,7.89,9.16.6.48,1.22.91,1.83,1.33,5.92.65,12.16,1,18.6,1,15.16,0,29.21-1.93,40.66-5.19,2.17-.61,4.25-1.28,6.22-2,14.14-5.09,23.02-12.44,23.02-20.63s-8.82-15.49-22.87-20.58Z"/>
      <path class="cls-2" d="m24.12,82.1c-1.09-.37-2.63-.94-4.42-1.78-2.79-1.31-4.5-2.11-6.26-3.75-1.02-.95-3.39-3.15-4.09-6.68-.48-2.43.05-4.41.36-5.54,2.18-7.8,11.58-13.89,13.15-14.88C8.82,54.56,0,61.9,0,70.05s8.89,15.55,23.04,20.64c.45.16.93.31,1.39.47-.27-3.04-.38-6.07-.31-9.07Z"/>
    </g>
    <path class="cls-1" d="m91.58,45.44c-.37-.32-1.71-1.47-3.64-2.75-.19-.12-1.21-.74-2.62-1.5-.29-.16-2.79-1.5-5.17-2.42-.91.84-4.64,4.11-10.23,4.12-7.81.01-12.27-6.35-12.66-6.91-1.16-1.89-1.91-4.05-2.16-6.24-.06-.56-.09-1.13-.09-1.7,0-.02,0-.04,0-.06,0,0,0-.01,0-.02,0-.42.03-.84.06-1.25.01-.14.02-.28.04-.42.04-.39.1-.77.18-1.16.02-.11.05-.22.07-.34.16-.73.36-1.45.63-2.14l.04-.04c2.18-5.56,7.6-9.55,13.89-9.55,5.43,0,10.2,2.97,12.81,7.36,3.47.89,7.77,2.31,11.79,4.52,1.14.62,2.25,1.3,3.33,2.01-.55-14.87-12.94-26.93-27.93-26.93s-27.96,12.62-27.96,27.96,27.96,53.58,27.96,53.58c0,0,13.94-19.07,22.13-35.68-.16-.14-.3-.29-.46-.43Z"/>
    <path class="cls-2" d="m61.22,33.52c.99-.29,2.55-.68,4.49-.95,1.35-.19,8.23-1.05,15.6,1.65,2.66.98,5.5,2.47,6.22,2.86,1.74.94,2.93,1.68,2.93,1.68,0,0,0,0,0,0,2.22,1.46,3.76,2.79,4.2,3.18,7.89,6.94,10.55,15.69,11.17,17.92.32,1.16,1.31,4.93,1.37,10.04.02,2.24-.14,4.39-.43,6.44-.14.83-.41,2.14-.87,3.77,2.65-.63,5.14-1.33,7.42-2.11l.53-.18c.56-.18,1.28-.42,2.11-.75.36-2.26.57-4.65.57-7.18-.05-16.59-9.32-32.71-24.24-40.9-7.84-4.3-17.02-5.32-17.02-5.32-1.61-.22-3.4-.37-5.34-.39-3.71-.04-6.95.41-9.57.99-.33.88-.87,2.66-.62,4.91.23,2.04,1.01,3.53,1.5,4.32Z"/>
    <path class="cls-2" d="m90.16,101.37c-8.55,5.41-17.14,5.81-20.25,5.81-3.69,0-12.93-.54-21.85-6.89-.53-.37-.99-.72-1.44-1.07,0,0-.02-.01-.03-.02-2.1-1.66-9.95-8.23-12.96-19.97-1.82-7.11-1.11-13.14-.46-16.48-1.16,2.28-2.6,5.64-3.48,9.92-.65,3.16-.77,5.67-.8,6.7-.08,2.9-.37,13.17,6.54,21.78,2.49,3.11,5.03,4.89,7.9,6.9,4.43,3.09,8.82,5.05,12.58,6.31,2.09.66,4.59,1.28,7.44,1.69,2.42.34,4.63.46,6.56.46,0,0,0,0,0,0,4.05,0,11.05-.53,18.85-3.97,3.47-1.53,11.34-5.53,17.93-14.03-5.23,1.24-10.78,2.2-16.55,2.87Z"/>
  </g>
  <g>
    <g>
      <path class="cls-2" d="m508.72,71.85c.35,2.04.62,4.48.63,7.23.01,2.91-.26,5.47-.63,7.6h-37.25c-.45-8.42-.72-17.22-.76-26.39-.04-10.64.24-20.82.76-30.48h15.74c-.46,7.61-.73,15.62-.74,24-.01,6.22.12,12.24.37,18.03h21.89Z"/>
      <path class="cls-1" d="m202.89,78.86c-6.78,0-13.69,0-20.46,0-.81,2.61-1.61,5.22-2.42,7.83h-16.89c2.72-9.06,5.8-18.5,9.3-28.26,3.61-10.08,7.36-19.62,11.14-28.6h18.54c3.79,8.98,7.53,18.52,11.15,28.6,3.5,9.76,6.58,19.2,9.29,28.26h-17.22l-2.42-7.83Zm-4.75-14.5c-.8-2.27-1.62-4.54-2.45-6.83-1-2.77-2.01-5.5-3.03-8.22-.96,2.53-1.91,5.11-2.85,7.72-.89,2.47-1.75,4.91-2.59,7.33h10.92Z"/>
      <path class="cls-1" d="m282.94,52.81v5.44c.06,2.8-.23,7.75-2.74,13.15-2.48,5.32-5.9,8.46-6.84,9.28-.81.71-2.71,2.3-5.49,3.75-6.17,3.21-11.95,3.25-13.85,3.24-2.59-.01-15.02-.41-23.42-10.7-4.1-5.02-6.5-11.49-6.5-18.72,0-16.73,13.02-29.42,30.24-29.42,9.72,0,18.38,3.96,23.4,10.38l-11.87,9.48c-2.64-2.97-6.68-4.86-11.21-4.86-8.16,0-14.42,6.18-14.42,14.42s6.18,14.42,14.34,14.42c4.94,0,8.98-2.31,11.04-5.85h-10.96c-.35-1.92-.63-4.26-.63-6.92,0-2.73.28-5.13.63-7.09h28.27Z"/>
      <path class="cls-1" d="m312.92,69.05h-5.59l.65,17.64h-15.74c-.48-8.89-.76-18.23-.76-27.98,0-10.08.27-19.72.76-28.88h25.55c11.95,0,21.01,8.57,21.01,20.03,0,7.25-3.79,13.19-9.64,16.48l11.37,20.35h-18.87l-8.74-17.64Zm-5.71-13.68h10.24c2.97,0,5.19-2.31,5.19-5.36s-2.23-5.36-5.19-5.36h-10.07l-.17,10.71Z"/>
      <path class="cls-1" d="m344.97,58.25c0-16.73,13.02-29.42,30.24-29.42s30.24,12.69,30.24,29.42-13.02,29.42-30.24,29.42-30.24-12.69-30.24-29.42Zm44.34,0c0-8.16-6.1-14.26-14.09-14.26s-14.09,6.1-14.09,14.26,6.1,14.26,14.09,14.26,14.09-6.1,14.09-14.26Z"/>
      <path class="cls-2" d="m462.16,50.01c0,11.54-9.07,20.19-21.01,20.19h-11.25s.62,16.48.62,16.48h-15.74c-.49-9.12-.77-18.72-.76-28.76,0-9.8.28-19.18.76-28.1h26.37c11.95,0,21.01,8.65,21.01,20.19Zm-16.15,0c0-3.05-2.22-5.36-5.19-5.36-3.63,0-7.26,0-10.89-.01-.05,1.91-.09,3.85-.11,5.8-.02,1.66-.04,3.3-.05,4.93,3.68,0,7.37,0,11.05,0,2.97,0,5.19-2.31,5.19-5.36Z"/>
      <path class="cls-2" d="m637.01,29.82c.57,10.68.85,21.95.73,33.75-.08,7.97-.34,15.68-.73,23.11h-15.74l-19.55-30.26c0,3.43.02,6.91.07,10.43.11,6.78.35,13.4.68,19.84h-15.74c-.47-8.74-.75-17.91-.76-27.47-.02-10.26.26-20.07.76-29.4h15.74l19.54,30.26c.02-4.85-.02-9.82-.15-14.92-.13-5.25-.33-10.37-.61-15.35h15.74Z"/>
      <path class="cls-2" d="m557.8,78.86c-6.78,0-13.69,0-20.46,0-.81,2.61-1.61,5.22-2.42,7.83h-16.89c2.72-9.06,5.8-18.5,9.3-28.26,3.61-10.08,7.36-19.62,11.14-28.6h18.54c3.79,8.98,7.53,18.52,11.15,28.6,3.5,9.76,6.58,19.2,9.29,28.26h-17.22l-2.42-7.83Zm-4.75-14.5c-.8-2.27-1.62-4.54-2.45-6.83-1-2.77-2.01-5.5-3.03-8.22-.96,2.53-1.91,5.11-2.85,7.72-.89,2.47-1.75,4.91-2.59,7.33h10.92Z"/>
    </g>
    <g>
      <path class="cls-1" d="m295.53,102.01v.52h-4v-6.14h3.95v.52h-3.41v2.28h3.11v.52h-3.11v2.31h3.45Z"/>
      <path class="cls-1" d="m306.27,96.39v6.14h-.6l-3.9-5.27v5.27h-.54v-6.14h.59l3.9,5.27v-5.27h.55Z"/>
      <path class="cls-1" d="m318.23,99.38v.18c0,1.77-1.33,3.08-3.1,3.08s-3.19-1.37-3.19-3.18,1.38-3.18,3.2-3.18c1.11,0,2.06.52,2.62,1.32l-.42.32c-.46-.68-1.25-1.11-2.19-1.11-1.5,0-2.64,1.14-2.64,2.65s1.14,2.65,2.64,2.65c1.36,0,2.42-.93,2.51-2.24h-2.25v-.49h2.82Z"/>
      <path class="cls-1" d="m327.86,102.01v.52h-4v-6.14h3.95v.52h-3.41v2.28h3.11v.52h-3.11v2.31h3.45Z"/>
      <path class="cls-1" d="m338.61,96.39v6.14h-.6l-3.9-5.27v5.27h-.54v-6.14h.59l3.9,5.27v-5.27h.55Z"/>
      <path class="cls-1" d="m349.59,96.39v6.14h-.55v-2.83h-3.87v2.83h-.54v-6.14h.54v2.79h3.87v-2.79h.55Z"/>
      <path class="cls-1" d="m359.59,100.85h-3.22l-.7,1.68h-.6l2.59-6.14h.66l2.59,6.14h-.61l-.7-1.68Zm-.2-.51l-1.41-3.36-1.4,3.36h2.8Z"/>
      <path class="cls-1" d="m367.93,99.93h-1v2.6h-.54v-6.14h2.4c1.03,0,1.81.77,1.81,1.78s-.77,1.76-1.8,1.76h-.2l2.12,2.6h-.68l-2.11-2.6Zm-1-.48h1.85c.71,0,1.25-.54,1.25-1.27s-.54-1.27-1.25-1.27h-1.85v2.54Z"/>
      <path class="cls-1" d="m376.29,96.39h.54v6.14h-.54v-6.14Z"/>
      <path class="cls-1" d="m386.83,100.85h-3.22l-.7,1.68h-.6l2.59-6.14h.66l2.59,6.14h-.61l-.7-1.68Zm-.2-.51l-1.41-3.36-1.4,3.36h2.8Z"/>
      <path class="cls-1" d="m404.38,102.01v.52h-4v-6.14h3.95v.52h-3.41v2.28h3.11v.52h-3.11v2.31h3.45Z"/>
      <path class="cls-1" d="m420.83,100.85h-3.22l-.7,1.68h-.6l2.59-6.14h.66l2.59,6.14h-.61l-.7-1.68Zm-.2-.51l-1.41-3.36-1.4,3.36h2.8Z"/>
      <path class="cls-1" d="m427.07,101.66l.3-.41c.45.5,1.19.88,2.02.88.93,0,1.65-.48,1.65-1.18,0-.92-1.19-1.17-1.75-1.28-.94-.2-2.04-.66-2.04-1.74,0-1,.89-1.65,2.1-1.65.84,0,1.54.31,1.96.78l-.28.4c-.3-.37-.94-.69-1.67-.69-.88,0-1.54.47-1.54,1.13,0,.82.99,1.1,1.63,1.23.62.12,2.17.52,2.17,1.79,0,1.01-.97,1.71-2.22,1.71-.91,0-1.78-.37-2.32-.97Z"/>
      <path class="cls-1" d="m436.73,101.66l.3-.41c.45.5,1.19.88,2.02.88.93,0,1.65-.48,1.65-1.18,0-.92-1.19-1.17-1.75-1.28-.94-.2-2.04-.66-2.04-1.74,0-1,.89-1.65,2.1-1.65.84,0,1.54.31,1.96.78l-.28.4c-.3-.37-.94-.69-1.67-.69-.88,0-1.54.47-1.54,1.13,0,.82.99,1.1,1.63,1.23.62.12,2.17.52,2.17,1.79,0,1.01-.97,1.71-2.22,1.71-.91,0-1.78-.37-2.32-.97Z"/>
      <path class="cls-1" d="m450.85,102.01v.52h-4v-6.14h3.95v.52h-3.41v2.28h3.11v.52h-3.11v2.31h3.45Z"/>
      <path class="cls-1" d="m456.12,101.66l.3-.41c.45.5,1.19.88,2.02.88.93,0,1.65-.48,1.65-1.18,0-.92-1.19-1.17-1.75-1.28-.94-.2-2.04-.66-2.04-1.74,0-1,.89-1.65,2.1-1.65.84,0,1.54.31,1.96.78l-.28.4c-.3-.37-.94-.69-1.67-.69-.88,0-1.54.47-1.54,1.13,0,.82.99,1.1,1.63,1.23.62.12,2.17.52,2.17,1.79,0,1.01-.97,1.71-2.22,1.71-.91,0-1.78-.37-2.32-.97Z"/>
      <path class="cls-1" d="m465.78,101.66l.3-.41c.45.5,1.19.88,2.02.88.93,0,1.65-.48,1.65-1.18,0-.92-1.19-1.17-1.75-1.28-.94-.2-2.04-.66-2.04-1.74,0-1,.89-1.65,2.1-1.65.84,0,1.54.31,1.96.78l-.28.4c-.3-.37-.94-.69-1.67-.69-.88,0-1.54.47-1.54,1.13,0,.82.99,1.1,1.63,1.23.62.12,2.17.52,2.17,1.79,0,1.01-.97,1.71-2.22,1.71-.91,0-1.78-.37-2.32-.97Z"/>
      <path class="cls-1" d="m475.52,99.46c0-1.81,1.38-3.18,3.2-3.18s3.2,1.37,3.2,3.18-1.39,3.18-3.2,3.18-3.2-1.37-3.2-3.18Zm5.84,0c0-1.51-1.14-2.64-2.63-2.64s-2.63,1.13-2.63,2.64,1.14,2.64,2.63,2.64,2.63-1.13,2.63-2.64Z"/>
      <path class="cls-1" d="m489.14,99.93h-1v2.6h-.54v-6.14h2.4c1.03,0,1.81.77,1.81,1.78s-.77,1.76-1.8,1.76h-.2l2.12,2.6h-.68l-2.11-2.6Zm-1-.48h1.85c.71,0,1.25-.54,1.25-1.27s-.54-1.27-1.25-1.27h-1.85v2.54Z"/>
      <path class="cls-1" d="m497.49,96.39h.54v6.14h-.54v-6.14Z"/>
      <path class="cls-1" d="m508.04,100.85h-3.22l-.7,1.68h-.6l2.59-6.14h.66l2.59,6.14h-.61l-.7-1.68Zm-.2-.51l-1.41-3.36-1.4,3.36h2.8Z"/>
    </g>
  </g>
</svg>