<?xml version="1.0" encoding="UTF-8"?>
<svg id="Camada_1" data-name="Camada 1" xmlns="http://www.w3.org/2000/svg" xmlns:xlink="http://www.w3.org/1999/xlink" viewBox="0 0 400 400">
  <defs>
    <style>
      .cls-1 {
        fill: url(#Gradiente_sem_nome_7-3);
      }

      .cls-2 {
        fill: url(#Gradiente_sem_nome_7-5);
      }

      .cls-3 {
        fill: url(#Gradiente_sem_nome_7-6);
      }

      .cls-4 {
        fill: url(#Gradiente_sem_nome_7-8);
      }

      .cls-5 {
        fill: url(#Gradiente_sem_nome_7-7);
      }

      .cls-6 {
        fill: url(#Gradiente_sem_nome_7-4);
      }

      .cls-7 {
        fill: url(#Gradiente_sem_nome_7);
      }

      .cls-8 {
        fill: url(#Gradiente_sem_nome_7-10);
      }

      .cls-9 {
        fill: url(#Gradiente_sem_nome_7-9);
      }

      .cls-10 {
        fill: url(#Gradiente_sem_nome_7-11);
      }

      .cls-11 {
        fill: url(#Gradiente_sem_nome_7-2);
      }
    </style>
    <linearGradient id="Gradiente_sem_nome_7" data-name="Gradiente sem nome 7" x1="224.39" y1="262.68" x2="166.01" y2="237.86" gradientUnits="userSpaceOnUse">
      <stop offset="0" stop-color="#ff3dc8"/>
      <stop offset="1" stop-color="#ffc602"/>
    </linearGradient>
    <linearGradient id="Gradiente_sem_nome_7-2" data-name="Gradiente sem nome 7" x1="222.67" y1="184.26" x2="178.53" y2="116.43" xlink:href="#Gradiente_sem_nome_7"/>
    <linearGradient id="Gradiente_sem_nome_7-3" data-name="Gradiente sem nome 7" x1="274.46" y1="311.56" x2="180.43" y2="167.08" xlink:href="#Gradiente_sem_nome_7"/>
    <linearGradient id="Gradiente_sem_nome_7-4" data-name="Gradiente sem nome 7" x1="165.67" y1="319.95" x2="170.33" y2="133.46" xlink:href="#Gradiente_sem_nome_7"/>
    <linearGradient id="Gradiente_sem_nome_7-5" data-name="Gradiente sem nome 7" x1="168.98" y1="221.17" x2="206.62" y2="125.03" xlink:href="#Gradiente_sem_nome_7"/>
    <linearGradient id="Gradiente_sem_nome_7-6" data-name="Gradiente sem nome 7" x1="166.32" y1="99.78" x2="227.61" y2="141.87" xlink:href="#Gradiente_sem_nome_7"/>
    <linearGradient id="Gradiente_sem_nome_7-7" data-name="Gradiente sem nome 7" x1="185.99" y1="113.29" x2="211.17" y2="130.58" xlink:href="#Gradiente_sem_nome_7"/>
    <linearGradient id="Gradiente_sem_nome_7-8" data-name="Gradiente sem nome 7" x1="246.77" y1="138.43" x2="226.17" y2="106.78" xlink:href="#Gradiente_sem_nome_7"/>
    <linearGradient id="Gradiente_sem_nome_7-9" data-name="Gradiente sem nome 7" x1="270.64" y1="147.19" x2="238.64" y2="98.02" xlink:href="#Gradiente_sem_nome_7"/>
    <linearGradient id="Gradiente_sem_nome_7-10" data-name="Gradiente sem nome 7" x1="71.63" y1="138.43" x2="51.03" y2="106.78" gradientTransform="translate(223.16) rotate(-180) scale(1 -1)" xlink:href="#Gradiente_sem_nome_7"/>
    <linearGradient id="Gradiente_sem_nome_7-11" data-name="Gradiente sem nome 7" x1="95.5" y1="147.19" x2="63.5" y2="98.02" gradientTransform="translate(223.16) rotate(-180) scale(1 -1)" xlink:href="#Gradiente_sem_nome_7"/>
  </defs>
  <polygon class="cls-7" points="158.08 287.36 155.31 274.56 214.55 261.74 166.87 236.81 167.92 224.77 220.41 208.11 224.37 220.59 186.87 232.49 236.64 258.51 234.99 270.71 158.08 287.36"/>
  <path class="cls-11" d="m212.45,131.86c-1.99-6.95-9.23-10.98-16.18-9-6.95,1.98-10.98,9.23-8.99,16.18l14.54,50.93c7.69-4.47,15.7-8.28,24.04-11.17l-13.4-46.95Z"/>
  <path class="cls-1" d="m225.86,178.81c-8.34,2.89-16.35,6.7-24.04,11.17l34.05,119.27c1.64,5.75,6.88,9.5,12.58,9.5,1.19,0,2.4-.16,3.6-.51,6.95-1.98,10.98-9.23,8.99-16.18l-35.19-123.25Z"/>
  <path class="cls-6" d="m161.23,222.54l-22.7,79.52c-1.99,6.95,2.04,14.2,8.99,16.18,1.2.34,2.41.51,3.6.51,5.7,0,10.94-3.75,12.58-9.5l33.15-116.11c-13.64,7.31-25.54,17.51-35.63,29.4Z"/>
  <path class="cls-2" d="m203.3,122.87c-6.95-1.99-14.2,2.04-16.18,9l-25.89,90.68c10.09-11.89,21.99-22.1,35.63-29.4l15.44-54.09c1.99-6.95-2.04-14.2-8.99-16.18Z"/>
  <circle class="cls-3" cx="199.71" cy="122.71" r="26.18"/>
  <circle class="cls-5" cx="199.71" cy="122.71" r="10.76"/>
  <path class="cls-4" d="m236.46,144.19c-.98,0-1.97-.29-2.84-.91-2.21-1.57-2.73-4.63-1.16-6.84,1.24-1.75,4.13-6.6,4.13-13.83s-2.89-12.08-4.13-13.83c-1.57-2.21-1.05-5.28,1.16-6.84,2.21-1.57,5.28-1.05,6.84,1.16,1.79,2.52,5.94,9.46,5.94,19.51s-4.16,16.99-5.94,19.51c-.96,1.35-2.47,2.07-4.01,2.07Z"/>
  <path class="cls-9" d="m254.63,156.67c-.98,0-1.97-.29-2.84-.91-2.21-1.57-2.73-4.63-1.16-6.85,2.38-3.35,7.9-12.61,7.9-26.3s-5.53-22.95-7.9-26.3c-1.57-2.21-1.05-5.28,1.16-6.85,2.21-1.57,5.28-1.05,6.85,1.16,2.92,4.11,9.71,15.47,9.71,31.98s-6.79,27.87-9.71,31.98c-.96,1.35-2.47,2.07-4.01,2.07Z"/>
  <path class="cls-8" d="m161.84,144.19c-1.54,0-3.05-.72-4.01-2.07-1.79-2.52-5.94-9.46-5.94-19.51s4.16-16.99,5.94-19.51c1.57-2.21,4.63-2.73,6.84-1.16,2.21,1.57,2.73,4.63,1.16,6.84-1.24,1.75-4.13,6.6-4.13,13.83s2.89,12.08,4.13,13.83c1.57,2.21,1.05,5.28-1.16,6.84-.86.61-1.85.91-2.84.91Z"/>
  <path class="cls-10" d="m143.67,156.67c-1.54,0-3.05-.72-4.01-2.07-2.92-4.12-9.71-15.47-9.71-31.98s6.79-27.87,9.71-31.98c1.57-2.21,4.63-2.73,6.85-1.16,2.21,1.57,2.73,4.63,1.16,6.84-2.38,3.35-7.9,12.61-7.9,26.3s5.53,22.95,7.9,26.3c1.57,2.21,1.05,5.28-1.16,6.85-.86.61-1.85.91-2.84.91Z"/>
</svg>