<?xml version="1.0" encoding="UTF-8"?>
<svg id="Camada_1" data-name="Camada 1" xmlns="http://www.w3.org/2000/svg" xmlns:xlink="http://www.w3.org/1999/xlink" viewBox="0 0 400 400">
  <defs>
    <style>
      .cls-1 {
        opacity: .13;
      }

      .cls-2 {
        fill: url(#Gradiente_sem_nome_7-3);
      }

      .cls-3 {
        fill: url(#Gradiente_sem_nome_4);
      }

      .cls-4 {
        fill: url(#Gradiente_sem_nome_4-3);
      }

      .cls-5 {
        fill: url(#Gradiente_sem_nome_4-2);
      }

      .cls-6 {
        fill: url(#Gradiente_sem_nome_7);
      }

      .cls-7 {
        fill: url(#Gradiente_sem_nome_4-5);
      }

      .cls-8 {
        fill: url(#Gradiente_sem_nome_4-4);
      }

      .cls-9 {
        fill: url(#Gradiente_sem_nome_7-2);
      }
    </style>
    <linearGradient id="Gradiente_sem_nome_7" data-name="Gradiente sem nome 7" x1="116.39" y1="196.99" x2="230.2" y2="262.6" gradientUnits="userSpaceOnUse">
      <stop offset="0" stop-color="#ff3dc8"/>
      <stop offset="1" stop-color="#ffc602"/>
    </linearGradient>
    <linearGradient id="Gradiente_sem_nome_4" data-name="Gradiente sem nome 4" x1="110.76" y1="189.1" x2="255.24" y2="217.36" gradientUnits="userSpaceOnUse">
      <stop offset="0" stop-color="#1f93ff"/>
      <stop offset="1" stop-color="#ff3dc8"/>
    </linearGradient>
    <linearGradient id="Gradiente_sem_nome_4-2" data-name="Gradiente sem nome 4" x1="110.38" y1="211.84" x2="235.04" y2="236.22" xlink:href="#Gradiente_sem_nome_4"/>
    <linearGradient id="Gradiente_sem_nome_4-3" data-name="Gradiente sem nome 4" x1="110" y1="234.57" x2="214.84" y2="255.07" xlink:href="#Gradiente_sem_nome_4"/>
    <linearGradient id="Gradiente_sem_nome_4-4" data-name="Gradiente sem nome 4" x1="109.62" y1="257.3" x2="194.64" y2="273.93" xlink:href="#Gradiente_sem_nome_4"/>
    <linearGradient id="Gradiente_sem_nome_4-5" data-name="Gradiente sem nome 4" x1="109.31" y1="279.7" x2="174.5" y2="292.45" xlink:href="#Gradiente_sem_nome_4"/>
    <linearGradient id="Gradiente_sem_nome_7-2" data-name="Gradiente sem nome 7" x1="110.48" y1="78.4" x2="243.37" y2="168.11" xlink:href="#Gradiente_sem_nome_7"/>
    <linearGradient id="Gradiente_sem_nome_7-3" data-name="Gradiente sem nome 7" x1="258.48" y1="319.32" x2="161.93" y2="177.72" xlink:href="#Gradiente_sem_nome_7"/>
  </defs>
  <path class="cls-6" d="m260.11,169.87h-120.22c-16.71,0-30.27,13.56-30.27,30.27v90.09c0,.61.02,1.22.05,1.82.25,4.19,1.35,8.15,3.13,11.71,4.97,9.93,15.24,16.74,27.08,16.74h120.22c11.85,0,22.12-6.81,27.08-16.74,1.78-3.56,2.88-7.52,3.13-11.71.04-.6.05-1.21.05-1.82v-90.09c0-16.71-13.55-30.27-30.27-30.27Z"/>
  <g class="cls-1">
    <path class="cls-3" d="m109.62,218.73c-.86-7.01,1.14-14.51,5.48-20.58,2.2-3.01,4.98-5.63,8.14-7.74,3.16-2.11,6.75-3.63,10.51-4.5.95-.18,1.9-.38,2.85-.53l2.89-.25c1.82-.1,3.52-.12,5.28-.19,3.49-.12,6.99-.19,10.48-.27,6.99-.14,13.98-.2,20.97-.21,13.98,0,27.96.27,41.94.85,13.98.63,27.96,1.47,41.94,3.15-13.98,1.68-27.96,2.51-41.94,3.15-13.98.59-27.96.86-41.94.85-6.99-.02-13.98-.07-20.97-.21-3.49-.08-6.99-.15-10.48-.27l-5.2-.15h-2.34c-.78.07-1.55.18-2.33.25-6.19.88-12.24,3.82-16.79,8.57-4.6,4.71-7.56,11.1-8.49,18.08Z"/>
    <path class="cls-5" d="m109.62,239.53c-.39-3.07-.27-6.25.33-9.39.66-3.13,1.87-6.17,3.5-9.01,3.34-5.62,8.56-10.31,14.84-12.9,1.55-.71,3.19-1.14,4.83-1.64,1.67-.32,3.35-.7,5.06-.77,1.78-.17,3.22-.19,4.77-.23l4.6-.12c6.13-.14,12.26-.2,18.4-.21,12.26,0,24.53.27,36.79.85,12.26.62,24.53,1.48,36.79,3.15-12.26,1.67-24.53,2.53-36.79,3.15-12.26.59-24.53.86-36.79.85-6.13-.02-12.26-.07-18.4-.21l-4.6-.12c-1.51-.03-3.14-.13-4.42-.08-1.37-.06-2.7.19-4.07.3-1.33.29-2.69.49-3.99.96-.66.2-1.32.39-1.95.68-.63.27-1.3.5-1.91.81l-1.85.97c-.61.34-1.18.75-1.78,1.12-2.3,1.59-4.5,3.44-6.32,5.68-1.83,2.22-3.37,4.72-4.61,7.43-1.15,2.74-1.94,5.67-2.44,8.73Z"/>
    <path class="cls-4" d="m109.62,260.32c-.34-2.63-.48-5.39,0-8.1.11-1.39.55-2.7.87-4.06.19-.67.46-1.31.7-1.97.24-.66.48-1.32.81-1.94l.95-1.9c.35-.61.74-1.2,1.12-1.81l.57-.9c.21-.29.43-.56.65-.85l1.33-1.69,1.49-1.56.76-.77.82-.7c.55-.46,1.1-.94,1.67-1.39l1.8-1.23c.59-.43,1.23-.78,1.88-1.12.64-.34,1.28-.71,1.94-1.03,1.36-.55,2.69-1.19,4.12-1.56.71-.2,1.41-.43,2.13-.61l2.18-.4c.36-.06.73-.14,1.09-.19l1.1-.09,2.22-.17c5.29-.15,10.55-.2,15.83-.22,10.55,0,21.1.27,31.65.85,10.55.62,21.1,1.48,31.65,3.15-10.55,1.67-21.1,2.53-31.65,3.15-10.55.59-21.1.86-31.65.85-5.27-.02-10.56-.07-15.82-.21-4.61-.05-9.31.85-13.53,3.02-8.59,4.15-14.98,12.92-16.69,23.46Z"/>
    <path class="cls-8" d="m109.62,281.12c-.86-4.42-.43-9.19,1.11-13.65,1.55-4.47,4.24-8.62,7.77-12,3.54-3.36,7.97-5.86,12.74-7.26.6-.17,1.19-.35,1.8-.51l1.84-.32c.62-.09,1.23-.24,1.85-.28l1.86-.13c1.31-.11,2.35-.08,3.46-.09l3.31-.02c8.83,0,17.67.27,26.5.85,8.83.62,17.67,1.48,26.5,3.15-8.83,1.67-17.67,2.53-26.5,3.15-8.83.59-17.67.86-26.5.85l-3.31-.02c-1.09,0-2.26-.03-3.16.02l-1.44.03c-.48,0-.95.11-1.43.16l-1.44.18-1.41.31c-3.77.84-7.41,2.44-10.64,4.75-6.46,4.65-11.23,11.99-12.9,20.84Z"/>
    <path class="cls-7" d="m109.62,301.91c-.91-7.13,1.16-14.83,5.73-20.91,4.51-6.13,11.5-10.57,19.24-12.1.97-.18,1.94-.34,2.92-.44.95-.13,2.02-.12,2.9-.23,1.78-.19,3.56-.33,5.34-.43,3.56-.2,7.12-.19,10.68-.03,3.56.17,7.12.52,10.68,1.11,3.56.61,7.12,1.41,10.68,2.76-3.56,1.35-7.12,2.16-10.68,2.76-3.56.59-7.12.94-10.68,1.11-3.56.16-7.12.17-10.68-.03-1.78-.1-3.56-.24-5.34-.43-1.7-.14-3.21-.07-4.82.1-6.34.7-12.53,3.66-17.22,8.42-2.36,2.36-4.33,5.17-5.84,8.26-1.49,3.11-2.45,6.52-2.91,10.07Z"/>
  </g>
  <path class="cls-9" d="m199.93,79.5h0c-33.24,0-60.18,26.94-60.18,60.18v30.2h120.36v-30.2c0-33.24-26.94-60.18-60.18-60.18Zm30.05,90.38h-60.11v-30.2c0-16.57,13.48-30.05,30.05-30.05s30.05,13.48,30.05,30.05v30.2Z"/>
  <path class="cls-2" d="m290.38,200.14v90.09c0,.61-.02,1.22-.05,1.82-.25,4.19-1.35,8.15-3.13,11.71-4.96,9.93-15.23,16.74-27.08,16.74-40.12,0-80.24,0-120.36,0,13.64-6.37,39.8-20.91,60.91-50.15,30.3-41.95,30.06-86.25,29.39-100.48h30.05c16.72,0,30.27,13.56,30.27,30.27Z"/>
</svg>